# xmcd
#
# Track frame offsets:
#	150
#	18320
#	33282
#	60001
#	71586
#	95406
#	114384
#	134940
#	149761
#	168589
#	183430
#	198543
#
# Disc length: 2896 seconds
#
# Revision: 0
# Processed by: cddbd v1.5.2PL0 Copyright (c) Steve Scherf et al.
# Submitted via: EZCDAudioConverter 8.2.2.1
#
DISCID=ae0b4e0c
DTITLE=Alain Bouchard - Influences
DYEAR=1900
DGENRE=
TTITLE0=Quand les rideaux se fermeront
TTITLE1=Pourquoi me faire si mal
TTITLE2=Papa reviens
TTITLE3=Le jour de ton retour
TTITLE4=Une croix sur ton nom
TTITLE5=Ta chanson dans le jukebox
TTITLE6=Reste avec moi
TTITLE7=Anita
TTITLE8=Milles après milles
TTITLE9=Tu sais que je t'aime
TTITLE10=Hello central
TTITLE11=Toujours près de moi
EXTD=
EXTT0=
EXTT1=
EXTT2=
EXTT3=
EXTT4=
EXTT5=
EXTT6=
EXTT7=
EXTT8=
EXTT9=
EXTT10=
EXTT11=
PLAYORDER=
